<?xml version="1.0" encoding="utf-8"?>

<!-- Uploaded to: SVG Repo, www.svgrepo.com, Generator: SVG Repo Mixer Tools -->
<svg version="1.1" id="Icons" xmlns="http://www.w3.org/2000/svg" xmlns:xlink="http://www.w3.org/1999/xlink" 
	 viewBox="0 0 32 32" xml:space="preserve">
<style type="text/css">
	.st0{fill:none;stroke:#000000;stroke-width:2;stroke-linecap:round;stroke-linejoin:round;stroke-miterlimit:10;}
</style>
<g>
	<path d="M27,14v-1c-6.2-0.4-15-3.8-20.3-6.5C6.2,7.1,5.8,7.9,5.6,8.7c5.2,2.7,13.3,5.3,19.7,5.3H27z"/>
	<path d="M27,16h-1.7c-0.8,0-1.6,0-2.4-0.1c0,0.2,0.1,0.4,0.1,0.6c0,1.4-1.1,2.5-2.5,2.5S18,17.9,18,16.5c0-0.5,0.1-0.9,0.4-1.3
		c-4.8-1-9.6-2.7-13.3-4.5C5,11.1,5,11.5,5,12v6.6c0,0,0,0.1,0,0.1c6.1,1.9,15.9,2.5,21.9,1.7c0.1-0.6,0.1-1.2,0.1-1.8V16z M11.5,19
		C10.1,19,9,17.9,9,16.5s1.1-2.5,2.5-2.5s2.5,1.1,2.5,2.5S12.9,19,11.5,19z M17,18c0,0.6-0.4,1-1,1s-1-0.4-1-1v-1c0-0.6,0.4-1,1-1
		s1,0.4,1,1V18z"/>
	<circle cx="11.5" cy="16.5" r="0.5"/>
	<path d="M5.2,20.8c0.2,1.2,0.6,2.4,1.1,3.5c5.7,0.5,15-0.5,20.2-1.9c0,0,0,0,0,0c-1.6,0.2-3.5,0.3-5.5,0.3
		C15.7,22.7,9.7,22,5.2,20.8z"/>
	<circle cx="20.5" cy="16.5" r="0.5"/>
	<path d="M26.9,10.3C26.1,5.6,22,2,17,2H15c-0.1,0-0.2,0-0.3,0C18,4.9,23.2,8.4,26.9,10.3z"/>
	<path d="M22.8,10.3C19,8,14.7,4.8,12.1,2.4c-1.6,0.5-3,1.3-4.1,2.4C12,6.8,17.7,9.2,22.8,10.3z"/>
	<path d="M9.8,26.4c-0.8,0-1.6,0-2.3-0.1c1.7,2.3,4.3,3.6,7.2,3.6h2.8c3.2,0,6.2-1.7,7.8-4.5c0.1-0.3,0.3-0.5,0.4-0.8
		C21.2,25.7,14.9,26.4,9.8,26.4z"/>
</g>
</svg>